<svg width="1366" height="768" viewBox="0 0 1366 768" fill="none" xmlns="http://www.w3.org/2000/svg">
<g opacity="0.4">
<g opacity="0.6">
<rect x="986" width="12" height="120" rx="6" fill="url(#paint0_linear_10_18374)"/>
</g>
<rect x="986" y="289" width="12" height="60" rx="6" fill="url(#paint1_linear_10_18374)"/>
</g>
<g opacity="0.4">
<g opacity="0.6">
<rect x="730" y="120" width="12" height="160" rx="6" fill="url(#paint2_linear_10_18374)"/>
</g>
<g opacity="0.4">
<rect x="730" y="432" width="12" height="60" rx="6" fill="url(#paint3_linear_10_18374)"/>
</g>
</g>
<g opacity="0.4">
<rect x="666" y="20" width="12" height="60" rx="6" fill="url(#paint4_linear_10_18374)"/>
<rect x="666" y="297" width="12" height="60" rx="6" fill="url(#paint5_linear_10_18374)"/>
</g>
<g opacity="0.4">
<rect x="538" y="40" width="12" height="120" rx="6" fill="url(#paint6_linear_10_18374)"/>
<g opacity="0.4">
<rect x="538" y="232" width="12" height="60" rx="6" fill="url(#paint7_linear_10_18374)"/>
</g>
<g opacity="0.2">
<rect x="538" y="386" width="12" height="30" rx="6" fill="url(#paint8_linear_10_18374)"/>
</g>
</g>
<g opacity="0.4">
<rect x="858" y="100" width="12" height="60" rx="6" fill="url(#paint9_linear_10_18374)"/>
<rect x="858" y="420" width="12" height="30" rx="6" fill="url(#paint10_linear_10_18374)"/>
</g>
<g opacity="0.4">
<rect x="794" y="297" width="12" height="160" rx="6" fill="url(#paint11_linear_10_18374)"/>
<g opacity="0.8">
<rect x="794" y="160" width="12" height="60" rx="6" fill="url(#paint12_linear_10_18374)"/>
</g>
<rect x="794" width="12" height="30" rx="6" fill="url(#paint13_linear_10_18374)"/>
</g>
<g opacity="0.4">
<g opacity="0.8">
<rect x="602" y="160" width="12" height="120" rx="6" fill="url(#paint14_linear_10_18374)"/>
</g>
<rect x="602" y="426" width="12" height="30" rx="6" fill="url(#paint15_linear_10_18374)"/>
</g>
<g opacity="0.4">
<rect x="922" y="452" width="12" height="60" rx="6" fill="url(#paint16_linear_10_18374)"/>
<g opacity="0.2">
<rect x="922" y="176" width="12" height="160" rx="6" fill="url(#paint17_linear_10_18374)"/>
</g>
</g>
<g opacity="0.4">
<g opacity="0.6">
<rect x="474" width="12" height="120" rx="6" fill="url(#paint18_linear_10_18374)"/>
</g>
<rect x="474" y="289" width="12" height="60" rx="6" fill="url(#paint19_linear_10_18374)"/>
</g>
<g opacity="0.4">
<g opacity="0.6">
<rect x="218" y="120" width="12" height="160" rx="6" fill="url(#paint20_linear_10_18374)"/>
</g>
<g opacity="0.4">
<rect x="218" y="432" width="12" height="60" rx="6" fill="url(#paint21_linear_10_18374)"/>
</g>
</g>
<g opacity="0.4">
<rect x="154" y="20" width="12" height="60" rx="6" fill="url(#paint22_linear_10_18374)"/>
<rect x="154" y="297" width="12" height="60" rx="6" fill="url(#paint23_linear_10_18374)"/>
</g>
<g opacity="0.4">
<rect x="26" y="40" width="12" height="120" rx="6" fill="url(#paint24_linear_10_18374)"/>
<g opacity="0.4">
<rect x="26" y="232" width="12" height="60" rx="6" fill="url(#paint25_linear_10_18374)"/>
</g>
<g opacity="0.2">
<rect x="26" y="386" width="12" height="30" rx="6" fill="url(#paint26_linear_10_18374)"/>
</g>
</g>
<g opacity="0.4">
<rect x="346" y="100" width="12" height="60" rx="6" fill="url(#paint27_linear_10_18374)"/>
<rect x="346" y="420" width="12" height="30" rx="6" fill="url(#paint28_linear_10_18374)"/>
</g>
<g opacity="0.4">
<rect x="282" y="297" width="12" height="160" rx="6" fill="url(#paint29_linear_10_18374)"/>
<g opacity="0.8">
<rect x="282" y="160" width="12" height="60" rx="6" fill="url(#paint30_linear_10_18374)"/>
</g>
<rect x="282" width="12" height="30" rx="6" fill="url(#paint31_linear_10_18374)"/>
</g>
<g opacity="0.4">
<g opacity="0.8">
<rect x="90" y="160" width="12" height="120" rx="6" fill="url(#paint32_linear_10_18374)"/>
</g>
<rect x="90" y="426" width="12" height="30" rx="6" fill="url(#paint33_linear_10_18374)"/>
</g>
<g opacity="0.4">
<rect x="410" y="452" width="12" height="60" rx="6" fill="url(#paint34_linear_10_18374)"/>
<g opacity="0.2">
<rect x="410" y="176" width="12" height="160" rx="6" fill="url(#paint35_linear_10_18374)"/>
</g>
</g>
<g opacity="0.4">
<g opacity="0.6">
<rect x="1242" y="120" width="12" height="160" rx="6" fill="url(#paint36_linear_10_18374)"/>
</g>
<g opacity="0.4">
<rect x="1242" y="432" width="12" height="60" rx="6" fill="url(#paint37_linear_10_18374)"/>
</g>
</g>
<g opacity="0.4">
<rect x="1178" y="20" width="12" height="60" rx="6" fill="url(#paint38_linear_10_18374)"/>
<rect x="1178" y="297" width="12" height="60" rx="6" fill="url(#paint39_linear_10_18374)"/>
</g>
<g opacity="0.4">
<rect x="1050" y="40" width="12" height="120" rx="6" fill="url(#paint40_linear_10_18374)"/>
<g opacity="0.4">
<rect x="1050" y="232" width="12" height="60" rx="6" fill="url(#paint41_linear_10_18374)"/>
</g>
<g opacity="0.2">
<rect x="1050" y="386" width="12" height="30" rx="6" fill="url(#paint42_linear_10_18374)"/>
</g>
</g>
<g opacity="0.4">
<rect x="1306" y="297" width="12" height="160" rx="6" fill="url(#paint43_linear_10_18374)"/>
<g opacity="0.8">
<rect x="1306" y="160" width="12" height="60" rx="6" fill="url(#paint44_linear_10_18374)"/>
</g>
<rect x="1306" width="12" height="30" rx="6" fill="url(#paint45_linear_10_18374)"/>
</g>
<g opacity="0.4">
<g opacity="0.8">
<rect x="1114" y="160" width="12" height="120" rx="6" fill="url(#paint46_linear_10_18374)"/>
</g>
<rect x="1114" y="426" width="12" height="30" rx="6" fill="url(#paint47_linear_10_18374)"/>
</g>
<g opacity="0.4">
<g opacity="0.6">
<rect x="986" y="512" width="12" height="120" rx="6" fill="url(#paint48_linear_10_18374)"/>
</g>
</g>
<g opacity="0.4">
<g opacity="0.6">
<rect x="730" y="632" width="12" height="160" rx="6" fill="url(#paint49_linear_10_18374)"/>
</g>
</g>
<g opacity="0.4">
<rect x="666" y="532" width="12" height="60" rx="6" fill="url(#paint50_linear_10_18374)"/>
</g>
<g opacity="0.4">
<rect x="538" y="552" width="12" height="120" rx="6" fill="url(#paint51_linear_10_18374)"/>
<g opacity="0.4">
<rect x="538" y="744" width="12" height="60" rx="6" fill="url(#paint52_linear_10_18374)"/>
</g>
</g>
<g opacity="0.4">
<rect x="858" y="612" width="12" height="60" rx="6" fill="url(#paint53_linear_10_18374)"/>
</g>
<g opacity="0.4">
<g opacity="0.8">
<rect x="794" y="672" width="12" height="60" rx="6" fill="url(#paint54_linear_10_18374)"/>
</g>
<rect x="794" y="512" width="12" height="30" rx="6" fill="url(#paint55_linear_10_18374)"/>
</g>
<g opacity="0.4">
<g opacity="0.8">
<rect x="602" y="672" width="12" height="120" rx="6" fill="url(#paint56_linear_10_18374)"/>
</g>
</g>
<g opacity="0.4">
<g opacity="0.2">
<rect x="922" y="688" width="12" height="160" rx="6" fill="url(#paint57_linear_10_18374)"/>
</g>
</g>
<g opacity="0.4">
<g opacity="0.6">
<rect x="474" y="512" width="12" height="120" rx="6" fill="url(#paint58_linear_10_18374)"/>
</g>
</g>
<g opacity="0.4">
<g opacity="0.6">
<rect x="218" y="632" width="12" height="160" rx="6" fill="url(#paint59_linear_10_18374)"/>
</g>
</g>
<g opacity="0.4">
<rect x="154" y="532" width="12" height="60" rx="6" fill="url(#paint60_linear_10_18374)"/>
</g>
<g opacity="0.4">
<rect x="26" y="552" width="12" height="120" rx="6" fill="url(#paint61_linear_10_18374)"/>
<g opacity="0.4">
<rect x="26" y="744" width="12" height="60" rx="6" fill="url(#paint62_linear_10_18374)"/>
</g>
</g>
<g opacity="0.4">
<rect x="346" y="612" width="12" height="60" rx="6" fill="url(#paint63_linear_10_18374)"/>
</g>
<g opacity="0.4">
<g opacity="0.8">
<rect x="282" y="672" width="12" height="60" rx="6" fill="url(#paint64_linear_10_18374)"/>
</g>
<rect x="282" y="512" width="12" height="30" rx="6" fill="url(#paint65_linear_10_18374)"/>
</g>
<g opacity="0.4">
<g opacity="0.8">
<rect x="90" y="672" width="12" height="120" rx="6" fill="url(#paint66_linear_10_18374)"/>
</g>
</g>
<g opacity="0.4">
<g opacity="0.2">
<rect x="410" y="688" width="12" height="160" rx="6" fill="url(#paint67_linear_10_18374)"/>
</g>
</g>
<g opacity="0.4">
<g opacity="0.6">
<rect x="1242" y="632" width="12" height="160" rx="6" fill="url(#paint68_linear_10_18374)"/>
</g>
</g>
<g opacity="0.4">
<rect x="1178" y="532" width="12" height="60" rx="6" fill="url(#paint69_linear_10_18374)"/>
</g>
<g opacity="0.4">
<rect x="1050" y="552" width="12" height="120" rx="6" fill="url(#paint70_linear_10_18374)"/>
<g opacity="0.4">
<rect x="1050" y="744" width="12" height="60" rx="6" fill="url(#paint71_linear_10_18374)"/>
</g>
</g>
<g opacity="0.4">
<g opacity="0.8">
<rect x="1306" y="672" width="12" height="60" rx="6" fill="url(#paint72_linear_10_18374)"/>
</g>
<rect x="1306" y="512" width="12" height="30" rx="6" fill="url(#paint73_linear_10_18374)"/>
</g>
<g opacity="0.4">
<g opacity="0.8">
<rect x="1114" y="672" width="12" height="120" rx="6" fill="url(#paint74_linear_10_18374)"/>
</g>
</g>
<defs>
<linearGradient id="paint0_linear_10_18374" x1="992" y1="0" x2="992" y2="120" gradientUnits="userSpaceOnUse">
<stop stop-color="#218AFF"/>
<stop offset="1" stop-color="#218AFF" stop-opacity="0"/>
</linearGradient>
<linearGradient id="paint1_linear_10_18374" x1="992" y1="289" x2="992" y2="349" gradientUnits="userSpaceOnUse">
<stop stop-color="#218AFF"/>
<stop offset="1" stop-color="#218AFF" stop-opacity="0"/>
</linearGradient>
<linearGradient id="paint2_linear_10_18374" x1="736" y1="120" x2="736" y2="280" gradientUnits="userSpaceOnUse">
<stop stop-color="#218AFF"/>
<stop offset="1" stop-color="#218AFF" stop-opacity="0"/>
</linearGradient>
<linearGradient id="paint3_linear_10_18374" x1="736" y1="432" x2="736" y2="492" gradientUnits="userSpaceOnUse">
<stop stop-color="#218AFF"/>
<stop offset="1" stop-color="#218AFF" stop-opacity="0"/>
</linearGradient>
<linearGradient id="paint4_linear_10_18374" x1="672" y1="20" x2="672" y2="80" gradientUnits="userSpaceOnUse">
<stop stop-color="#218AFF"/>
<stop offset="1" stop-color="#218AFF" stop-opacity="0"/>
</linearGradient>
<linearGradient id="paint5_linear_10_18374" x1="672" y1="297" x2="672" y2="357" gradientUnits="userSpaceOnUse">
<stop stop-color="#218AFF"/>
<stop offset="1" stop-color="#218AFF" stop-opacity="0"/>
</linearGradient>
<linearGradient id="paint6_linear_10_18374" x1="544" y1="40" x2="544" y2="160" gradientUnits="userSpaceOnUse">
<stop stop-color="#218AFF"/>
<stop offset="1" stop-color="#218AFF" stop-opacity="0"/>
</linearGradient>
<linearGradient id="paint7_linear_10_18374" x1="544" y1="232" x2="544" y2="292" gradientUnits="userSpaceOnUse">
<stop stop-color="#218AFF"/>
<stop offset="1" stop-color="#218AFF" stop-opacity="0"/>
</linearGradient>
<linearGradient id="paint8_linear_10_18374" x1="544" y1="386" x2="544" y2="416" gradientUnits="userSpaceOnUse">
<stop stop-color="#218AFF"/>
<stop offset="1" stop-color="#218AFF" stop-opacity="0"/>
</linearGradient>
<linearGradient id="paint9_linear_10_18374" x1="864" y1="100" x2="864" y2="160" gradientUnits="userSpaceOnUse">
<stop stop-color="#218AFF"/>
<stop offset="1" stop-color="#218AFF" stop-opacity="0"/>
</linearGradient>
<linearGradient id="paint10_linear_10_18374" x1="864" y1="420" x2="864" y2="450" gradientUnits="userSpaceOnUse">
<stop stop-color="#218AFF"/>
<stop offset="1" stop-color="#218AFF" stop-opacity="0"/>
</linearGradient>
<linearGradient id="paint11_linear_10_18374" x1="800" y1="297" x2="800" y2="457" gradientUnits="userSpaceOnUse">
<stop stop-color="#218AFF"/>
<stop offset="1" stop-color="#218AFF" stop-opacity="0"/>
</linearGradient>
<linearGradient id="paint12_linear_10_18374" x1="800" y1="160" x2="800" y2="220" gradientUnits="userSpaceOnUse">
<stop stop-color="#218AFF"/>
<stop offset="1" stop-color="#218AFF" stop-opacity="0"/>
</linearGradient>
<linearGradient id="paint13_linear_10_18374" x1="800" y1="0" x2="800" y2="30" gradientUnits="userSpaceOnUse">
<stop stop-color="#218AFF"/>
<stop offset="1" stop-color="#218AFF" stop-opacity="0"/>
</linearGradient>
<linearGradient id="paint14_linear_10_18374" x1="608" y1="160" x2="608" y2="280" gradientUnits="userSpaceOnUse">
<stop stop-color="#218AFF"/>
<stop offset="1" stop-color="#218AFF" stop-opacity="0"/>
</linearGradient>
<linearGradient id="paint15_linear_10_18374" x1="608" y1="426" x2="608" y2="456" gradientUnits="userSpaceOnUse">
<stop stop-color="#218AFF"/>
<stop offset="1" stop-color="#218AFF" stop-opacity="0"/>
</linearGradient>
<linearGradient id="paint16_linear_10_18374" x1="928" y1="452" x2="928" y2="512" gradientUnits="userSpaceOnUse">
<stop stop-color="#218AFF"/>
<stop offset="1" stop-color="#218AFF" stop-opacity="0"/>
</linearGradient>
<linearGradient id="paint17_linear_10_18374" x1="928" y1="176" x2="928" y2="336" gradientUnits="userSpaceOnUse">
<stop stop-color="#218AFF"/>
<stop offset="1" stop-color="#218AFF" stop-opacity="0"/>
</linearGradient>
<linearGradient id="paint18_linear_10_18374" x1="480" y1="0" x2="480" y2="120" gradientUnits="userSpaceOnUse">
<stop stop-color="#218AFF"/>
<stop offset="1" stop-color="#218AFF" stop-opacity="0"/>
</linearGradient>
<linearGradient id="paint19_linear_10_18374" x1="480" y1="289" x2="480" y2="349" gradientUnits="userSpaceOnUse">
<stop stop-color="#218AFF"/>
<stop offset="1" stop-color="#218AFF" stop-opacity="0"/>
</linearGradient>
<linearGradient id="paint20_linear_10_18374" x1="224" y1="120" x2="224" y2="280" gradientUnits="userSpaceOnUse">
<stop stop-color="#218AFF"/>
<stop offset="1" stop-color="#218AFF" stop-opacity="0"/>
</linearGradient>
<linearGradient id="paint21_linear_10_18374" x1="224" y1="432" x2="224" y2="492" gradientUnits="userSpaceOnUse">
<stop stop-color="#218AFF"/>
<stop offset="1" stop-color="#218AFF" stop-opacity="0"/>
</linearGradient>
<linearGradient id="paint22_linear_10_18374" x1="160" y1="20" x2="160" y2="80" gradientUnits="userSpaceOnUse">
<stop stop-color="#218AFF"/>
<stop offset="1" stop-color="#218AFF" stop-opacity="0"/>
</linearGradient>
<linearGradient id="paint23_linear_10_18374" x1="160" y1="297" x2="160" y2="357" gradientUnits="userSpaceOnUse">
<stop stop-color="#218AFF"/>
<stop offset="1" stop-color="#218AFF" stop-opacity="0"/>
</linearGradient>
<linearGradient id="paint24_linear_10_18374" x1="32" y1="40" x2="32" y2="160" gradientUnits="userSpaceOnUse">
<stop stop-color="#218AFF"/>
<stop offset="1" stop-color="#218AFF" stop-opacity="0"/>
</linearGradient>
<linearGradient id="paint25_linear_10_18374" x1="32" y1="232" x2="32" y2="292" gradientUnits="userSpaceOnUse">
<stop stop-color="#218AFF"/>
<stop offset="1" stop-color="#218AFF" stop-opacity="0"/>
</linearGradient>
<linearGradient id="paint26_linear_10_18374" x1="32" y1="386" x2="32" y2="416" gradientUnits="userSpaceOnUse">
<stop stop-color="#218AFF"/>
<stop offset="1" stop-color="#218AFF" stop-opacity="0"/>
</linearGradient>
<linearGradient id="paint27_linear_10_18374" x1="352" y1="100" x2="352" y2="160" gradientUnits="userSpaceOnUse">
<stop stop-color="#218AFF"/>
<stop offset="1" stop-color="#218AFF" stop-opacity="0"/>
</linearGradient>
<linearGradient id="paint28_linear_10_18374" x1="352" y1="420" x2="352" y2="450" gradientUnits="userSpaceOnUse">
<stop stop-color="#218AFF"/>
<stop offset="1" stop-color="#218AFF" stop-opacity="0"/>
</linearGradient>
<linearGradient id="paint29_linear_10_18374" x1="288" y1="297" x2="288" y2="457" gradientUnits="userSpaceOnUse">
<stop stop-color="#218AFF"/>
<stop offset="1" stop-color="#218AFF" stop-opacity="0"/>
</linearGradient>
<linearGradient id="paint30_linear_10_18374" x1="288" y1="160" x2="288" y2="220" gradientUnits="userSpaceOnUse">
<stop stop-color="#218AFF"/>
<stop offset="1" stop-color="#218AFF" stop-opacity="0"/>
</linearGradient>
<linearGradient id="paint31_linear_10_18374" x1="288" y1="0" x2="288" y2="30" gradientUnits="userSpaceOnUse">
<stop stop-color="#218AFF"/>
<stop offset="1" stop-color="#218AFF" stop-opacity="0"/>
</linearGradient>
<linearGradient id="paint32_linear_10_18374" x1="96" y1="160" x2="96" y2="280" gradientUnits="userSpaceOnUse">
<stop stop-color="#218AFF"/>
<stop offset="1" stop-color="#218AFF" stop-opacity="0"/>
</linearGradient>
<linearGradient id="paint33_linear_10_18374" x1="96" y1="426" x2="96" y2="456" gradientUnits="userSpaceOnUse">
<stop stop-color="#218AFF"/>
<stop offset="1" stop-color="#218AFF" stop-opacity="0"/>
</linearGradient>
<linearGradient id="paint34_linear_10_18374" x1="416" y1="452" x2="416" y2="512" gradientUnits="userSpaceOnUse">
<stop stop-color="#218AFF"/>
<stop offset="1" stop-color="#218AFF" stop-opacity="0"/>
</linearGradient>
<linearGradient id="paint35_linear_10_18374" x1="416" y1="176" x2="416" y2="336" gradientUnits="userSpaceOnUse">
<stop stop-color="#218AFF"/>
<stop offset="1" stop-color="#218AFF" stop-opacity="0"/>
</linearGradient>
<linearGradient id="paint36_linear_10_18374" x1="1248" y1="120" x2="1248" y2="280" gradientUnits="userSpaceOnUse">
<stop stop-color="#218AFF"/>
<stop offset="1" stop-color="#218AFF" stop-opacity="0"/>
</linearGradient>
<linearGradient id="paint37_linear_10_18374" x1="1248" y1="432" x2="1248" y2="492" gradientUnits="userSpaceOnUse">
<stop stop-color="#218AFF"/>
<stop offset="1" stop-color="#218AFF" stop-opacity="0"/>
</linearGradient>
<linearGradient id="paint38_linear_10_18374" x1="1184" y1="20" x2="1184" y2="80" gradientUnits="userSpaceOnUse">
<stop stop-color="#218AFF"/>
<stop offset="1" stop-color="#218AFF" stop-opacity="0"/>
</linearGradient>
<linearGradient id="paint39_linear_10_18374" x1="1184" y1="297" x2="1184" y2="357" gradientUnits="userSpaceOnUse">
<stop stop-color="#218AFF"/>
<stop offset="1" stop-color="#218AFF" stop-opacity="0"/>
</linearGradient>
<linearGradient id="paint40_linear_10_18374" x1="1056" y1="40" x2="1056" y2="160" gradientUnits="userSpaceOnUse">
<stop stop-color="#218AFF"/>
<stop offset="1" stop-color="#218AFF" stop-opacity="0"/>
</linearGradient>
<linearGradient id="paint41_linear_10_18374" x1="1056" y1="232" x2="1056" y2="292" gradientUnits="userSpaceOnUse">
<stop stop-color="#218AFF"/>
<stop offset="1" stop-color="#218AFF" stop-opacity="0"/>
</linearGradient>
<linearGradient id="paint42_linear_10_18374" x1="1056" y1="386" x2="1056" y2="416" gradientUnits="userSpaceOnUse">
<stop stop-color="#218AFF"/>
<stop offset="1" stop-color="#218AFF" stop-opacity="0"/>
</linearGradient>
<linearGradient id="paint43_linear_10_18374" x1="1312" y1="297" x2="1312" y2="457" gradientUnits="userSpaceOnUse">
<stop stop-color="#218AFF"/>
<stop offset="1" stop-color="#218AFF" stop-opacity="0"/>
</linearGradient>
<linearGradient id="paint44_linear_10_18374" x1="1312" y1="160" x2="1312" y2="220" gradientUnits="userSpaceOnUse">
<stop stop-color="#218AFF"/>
<stop offset="1" stop-color="#218AFF" stop-opacity="0"/>
</linearGradient>
<linearGradient id="paint45_linear_10_18374" x1="1312" y1="0" x2="1312" y2="30" gradientUnits="userSpaceOnUse">
<stop stop-color="#218AFF"/>
<stop offset="1" stop-color="#218AFF" stop-opacity="0"/>
</linearGradient>
<linearGradient id="paint46_linear_10_18374" x1="1120" y1="160" x2="1120" y2="280" gradientUnits="userSpaceOnUse">
<stop stop-color="#218AFF"/>
<stop offset="1" stop-color="#218AFF" stop-opacity="0"/>
</linearGradient>
<linearGradient id="paint47_linear_10_18374" x1="1120" y1="426" x2="1120" y2="456" gradientUnits="userSpaceOnUse">
<stop stop-color="#218AFF"/>
<stop offset="1" stop-color="#218AFF" stop-opacity="0"/>
</linearGradient>
<linearGradient id="paint48_linear_10_18374" x1="992" y1="512" x2="992" y2="632" gradientUnits="userSpaceOnUse">
<stop stop-color="#218AFF"/>
<stop offset="1" stop-color="#218AFF" stop-opacity="0"/>
</linearGradient>
<linearGradient id="paint49_linear_10_18374" x1="736" y1="632" x2="736" y2="792" gradientUnits="userSpaceOnUse">
<stop stop-color="#218AFF"/>
<stop offset="1" stop-color="#218AFF" stop-opacity="0"/>
</linearGradient>
<linearGradient id="paint50_linear_10_18374" x1="672" y1="532" x2="672" y2="592" gradientUnits="userSpaceOnUse">
<stop stop-color="#218AFF"/>
<stop offset="1" stop-color="#218AFF" stop-opacity="0"/>
</linearGradient>
<linearGradient id="paint51_linear_10_18374" x1="544" y1="552" x2="544" y2="672" gradientUnits="userSpaceOnUse">
<stop stop-color="#218AFF"/>
<stop offset="1" stop-color="#218AFF" stop-opacity="0"/>
</linearGradient>
<linearGradient id="paint52_linear_10_18374" x1="544" y1="744" x2="544" y2="804" gradientUnits="userSpaceOnUse">
<stop stop-color="#218AFF"/>
<stop offset="1" stop-color="#218AFF" stop-opacity="0"/>
</linearGradient>
<linearGradient id="paint53_linear_10_18374" x1="864" y1="612" x2="864" y2="672" gradientUnits="userSpaceOnUse">
<stop stop-color="#218AFF"/>
<stop offset="1" stop-color="#218AFF" stop-opacity="0"/>
</linearGradient>
<linearGradient id="paint54_linear_10_18374" x1="800" y1="672" x2="800" y2="732" gradientUnits="userSpaceOnUse">
<stop stop-color="#218AFF"/>
<stop offset="1" stop-color="#218AFF" stop-opacity="0"/>
</linearGradient>
<linearGradient id="paint55_linear_10_18374" x1="800" y1="512" x2="800" y2="542" gradientUnits="userSpaceOnUse">
<stop stop-color="#218AFF"/>
<stop offset="1" stop-color="#218AFF" stop-opacity="0"/>
</linearGradient>
<linearGradient id="paint56_linear_10_18374" x1="608" y1="672" x2="608" y2="792" gradientUnits="userSpaceOnUse">
<stop stop-color="#218AFF"/>
<stop offset="1" stop-color="#218AFF" stop-opacity="0"/>
</linearGradient>
<linearGradient id="paint57_linear_10_18374" x1="928" y1="688" x2="928" y2="848" gradientUnits="userSpaceOnUse">
<stop stop-color="#218AFF"/>
<stop offset="1" stop-color="#218AFF" stop-opacity="0"/>
</linearGradient>
<linearGradient id="paint58_linear_10_18374" x1="480" y1="512" x2="480" y2="632" gradientUnits="userSpaceOnUse">
<stop stop-color="#218AFF"/>
<stop offset="1" stop-color="#218AFF" stop-opacity="0"/>
</linearGradient>
<linearGradient id="paint59_linear_10_18374" x1="224" y1="632" x2="224" y2="792" gradientUnits="userSpaceOnUse">
<stop stop-color="#218AFF"/>
<stop offset="1" stop-color="#218AFF" stop-opacity="0"/>
</linearGradient>
<linearGradient id="paint60_linear_10_18374" x1="160" y1="532" x2="160" y2="592" gradientUnits="userSpaceOnUse">
<stop stop-color="#218AFF"/>
<stop offset="1" stop-color="#218AFF" stop-opacity="0"/>
</linearGradient>
<linearGradient id="paint61_linear_10_18374" x1="32" y1="552" x2="32" y2="672" gradientUnits="userSpaceOnUse">
<stop stop-color="#218AFF"/>
<stop offset="1" stop-color="#218AFF" stop-opacity="0"/>
</linearGradient>
<linearGradient id="paint62_linear_10_18374" x1="32" y1="744" x2="32" y2="804" gradientUnits="userSpaceOnUse">
<stop stop-color="#218AFF"/>
<stop offset="1" stop-color="#218AFF" stop-opacity="0"/>
</linearGradient>
<linearGradient id="paint63_linear_10_18374" x1="352" y1="612" x2="352" y2="672" gradientUnits="userSpaceOnUse">
<stop stop-color="#218AFF"/>
<stop offset="1" stop-color="#218AFF" stop-opacity="0"/>
</linearGradient>
<linearGradient id="paint64_linear_10_18374" x1="288" y1="672" x2="288" y2="732" gradientUnits="userSpaceOnUse">
<stop stop-color="#218AFF"/>
<stop offset="1" stop-color="#218AFF" stop-opacity="0"/>
</linearGradient>
<linearGradient id="paint65_linear_10_18374" x1="288" y1="512" x2="288" y2="542" gradientUnits="userSpaceOnUse">
<stop stop-color="#218AFF"/>
<stop offset="1" stop-color="#218AFF" stop-opacity="0"/>
</linearGradient>
<linearGradient id="paint66_linear_10_18374" x1="96" y1="672" x2="96" y2="792" gradientUnits="userSpaceOnUse">
<stop stop-color="#218AFF"/>
<stop offset="1" stop-color="#218AFF" stop-opacity="0"/>
</linearGradient>
<linearGradient id="paint67_linear_10_18374" x1="416" y1="688" x2="416" y2="848" gradientUnits="userSpaceOnUse">
<stop stop-color="#218AFF"/>
<stop offset="1" stop-color="#218AFF" stop-opacity="0"/>
</linearGradient>
<linearGradient id="paint68_linear_10_18374" x1="1248" y1="632" x2="1248" y2="792" gradientUnits="userSpaceOnUse">
<stop stop-color="#218AFF"/>
<stop offset="1" stop-color="#218AFF" stop-opacity="0"/>
</linearGradient>
<linearGradient id="paint69_linear_10_18374" x1="1184" y1="532" x2="1184" y2="592" gradientUnits="userSpaceOnUse">
<stop stop-color="#218AFF"/>
<stop offset="1" stop-color="#218AFF" stop-opacity="0"/>
</linearGradient>
<linearGradient id="paint70_linear_10_18374" x1="1056" y1="552" x2="1056" y2="672" gradientUnits="userSpaceOnUse">
<stop stop-color="#218AFF"/>
<stop offset="1" stop-color="#218AFF" stop-opacity="0"/>
</linearGradient>
<linearGradient id="paint71_linear_10_18374" x1="1056" y1="744" x2="1056" y2="804" gradientUnits="userSpaceOnUse">
<stop stop-color="#218AFF"/>
<stop offset="1" stop-color="#218AFF" stop-opacity="0"/>
</linearGradient>
<linearGradient id="paint72_linear_10_18374" x1="1312" y1="672" x2="1312" y2="732" gradientUnits="userSpaceOnUse">
<stop stop-color="#218AFF"/>
<stop offset="1" stop-color="#218AFF" stop-opacity="0"/>
</linearGradient>
<linearGradient id="paint73_linear_10_18374" x1="1312" y1="512" x2="1312" y2="542" gradientUnits="userSpaceOnUse">
<stop stop-color="#218AFF"/>
<stop offset="1" stop-color="#218AFF" stop-opacity="0"/>
</linearGradient>
<linearGradient id="paint74_linear_10_18374" x1="1120" y1="672" x2="1120" y2="792" gradientUnits="userSpaceOnUse">
<stop stop-color="#218AFF"/>
<stop offset="1" stop-color="#218AFF" stop-opacity="0"/>
</linearGradient>
</defs>
</svg>
